<svg width="48" height="48" viewBox="0 0 48 48" fill="none" xmlns="http://www.w3.org/2000/svg">
<path fill-rule="evenodd" clip-rule="evenodd" d="M4 24C4 12.9543 12.9543 4 24 4C29.3043 4 34.3914 6.10714 38.1421 9.85786C41.8929 13.6086 44 18.6957 44 24C44 35.0457 35.0457 44 24 44C12.9543 44 4 35.0457 4 24ZM21.4 33.42L29.4 25.42C29.7867 25.0525 30.0105 24.5458 30.0218 24.0125C30.0331 23.4792 29.8308 22.9635 29.46 22.58L21.46 14.58C20.9527 14.0727 20.2133 13.8746 19.5202 14.0602C18.8272 14.2459 18.2859 14.7872 18.1002 15.4802C17.9146 16.1733 18.1127 16.9127 18.62 17.42L25.16 24L18.58 30.58C18.2014 30.9555 17.9884 31.4667 17.9884 32C17.9884 32.5333 18.2014 33.0445 18.58 33.42C18.9574 33.7944 19.4684 34.0031 20 34C20.5247 33.9978 21.0275 33.7895 21.4 33.42Z" fill="black"/>
</svg>
