<svg width="48" height="48" viewBox="0 0 48 48" fill="none" xmlns="http://www.w3.org/2000/svg">
<path fill-rule="evenodd" clip-rule="evenodd" d="M4 24C4 12.9543 12.9543 4 24 4C29.3043 4 34.3914 6.10714 38.1421 9.85786C41.8929 13.6086 44 18.6957 44 24C44 35.0457 35.0457 44 24 44C12.9543 44 4 35.0457 4 24ZM29.9716 32C29.9716 31.4667 29.7586 30.9555 29.38 30.58L22.84 24L29.42 17.42C29.9273 16.9127 30.1254 16.1733 29.9398 15.4802C29.7541 14.7872 29.2128 14.2459 28.5198 14.0602C27.8267 13.8746 27.0873 14.0727 26.58 14.58L18.58 22.58C18.2014 22.9555 17.9884 23.4667 17.9884 24C17.9884 24.5333 18.2014 25.0445 18.58 25.42L26.58 33.42C26.9574 33.7944 27.4684 34.0031 28 34C28.5177 33.9926 29.0124 33.7847 29.38 33.42C29.7586 33.0445 29.9716 32.5333 29.9716 32Z" fill="black"/>
</svg>